<mxfile host="app.diagrams.net" agent="Mozilla/5.0 (X11; Linux x86_64) AppleWebKit/537.36 (KHTML, like Gecko) Chrome/131.0.0.0 Safari/537.36" version="26.0.16">
  <diagram name="ページ1" id="WLkvUpVctyg39RVmPe7X">
    <mxGraphModel dx="1500" dy="860" grid="1" gridSize="10" guides="1" tooltips="1" connect="1" arrows="1" fold="1" page="1" pageScale="1" pageWidth="827" pageHeight="1169" math="1" shadow="0">
      <root>
        <mxCell id="0" />
        <mxCell id="1" parent="0" />
        <mxCell id="4_9oDL4_EWWqX8cCBYXs-22" style="edgeStyle=orthogonalEdgeStyle;rounded=0;orthogonalLoop=1;jettySize=auto;html=1;exitX=1;exitY=0.5;exitDx=0;exitDy=0;entryX=0;entryY=0.5;entryDx=0;entryDy=0;" parent="1" source="4_9oDL4_EWWqX8cCBYXs-1" target="4_9oDL4_EWWqX8cCBYXs-4" edge="1">
          <mxGeometry relative="1" as="geometry" />
        </mxCell>
        <mxCell id="4_9oDL4_EWWqX8cCBYXs-1" value="&lt;font style=&quot;font-size: 20px;&quot;&gt;チャネル1&lt;/font&gt;" style="rounded=0;whiteSpace=wrap;html=1;strokeColor=none;" parent="1" vertex="1">
          <mxGeometry x="30" y="247.5" width="120" height="40" as="geometry" />
        </mxCell>
        <mxCell id="4_9oDL4_EWWqX8cCBYXs-23" style="edgeStyle=orthogonalEdgeStyle;rounded=0;orthogonalLoop=1;jettySize=auto;html=1;exitX=1;exitY=0.5;exitDx=0;exitDy=0;entryX=0;entryY=0.5;entryDx=0;entryDy=0;" parent="1" source="4_9oDL4_EWWqX8cCBYXs-2" target="4_9oDL4_EWWqX8cCBYXs-5" edge="1">
          <mxGeometry relative="1" as="geometry" />
        </mxCell>
        <mxCell id="4_9oDL4_EWWqX8cCBYXs-2" value="&lt;font style=&quot;font-size: 20px;&quot;&gt;チャネル2&lt;/font&gt;" style="rounded=0;whiteSpace=wrap;html=1;strokeColor=none;" parent="1" vertex="1">
          <mxGeometry x="30" y="340" width="120" height="40" as="geometry" />
        </mxCell>
        <mxCell id="4_9oDL4_EWWqX8cCBYXs-24" style="edgeStyle=orthogonalEdgeStyle;rounded=0;orthogonalLoop=1;jettySize=auto;html=1;exitX=1;exitY=0.5;exitDx=0;exitDy=0;entryX=0;entryY=0.5;entryDx=0;entryDy=0;" parent="1" source="4_9oDL4_EWWqX8cCBYXs-3" target="4_9oDL4_EWWqX8cCBYXs-6" edge="1">
          <mxGeometry relative="1" as="geometry" />
        </mxCell>
        <mxCell id="4_9oDL4_EWWqX8cCBYXs-3" value="&lt;font style=&quot;font-size: 20px;&quot;&gt;チャネル3&lt;/font&gt;" style="rounded=0;whiteSpace=wrap;html=1;strokeColor=none;" parent="1" vertex="1">
          <mxGeometry x="40" y="430" width="120" height="40" as="geometry" />
        </mxCell>
        <mxCell id="4_9oDL4_EWWqX8cCBYXs-25" style="rounded=0;orthogonalLoop=1;jettySize=auto;html=1;exitX=1;exitY=0.5;exitDx=0;exitDy=0;entryX=0;entryY=0;entryDx=0;entryDy=0;" parent="1" source="4_9oDL4_EWWqX8cCBYXs-4" target="4_9oDL4_EWWqX8cCBYXs-7" edge="1">
          <mxGeometry relative="1" as="geometry">
            <Array as="points">
              <mxPoint x="280" y="268" />
            </Array>
          </mxGeometry>
        </mxCell>
        <mxCell id="4_9oDL4_EWWqX8cCBYXs-4" value="&lt;span style=&quot;font-size: 20px;&quot;&gt;振幅変調&lt;/span&gt;" style="rounded=0;whiteSpace=wrap;html=1;strokeColor=default;" parent="1" vertex="1">
          <mxGeometry x="170" y="247.5" width="90" height="40" as="geometry" />
        </mxCell>
        <mxCell id="4_9oDL4_EWWqX8cCBYXs-5" value="&lt;span style=&quot;font-size: 20px;&quot;&gt;振幅変調&lt;/span&gt;" style="rounded=0;whiteSpace=wrap;html=1;strokeColor=default;" parent="1" vertex="1">
          <mxGeometry x="170" y="340" width="90" height="40" as="geometry" />
        </mxCell>
        <mxCell id="4_9oDL4_EWWqX8cCBYXs-27" style="rounded=0;orthogonalLoop=1;jettySize=auto;html=1;exitX=1;exitY=0.5;exitDx=0;exitDy=0;entryX=0;entryY=1;entryDx=0;entryDy=0;" parent="1" source="4_9oDL4_EWWqX8cCBYXs-6" target="4_9oDL4_EWWqX8cCBYXs-7" edge="1">
          <mxGeometry relative="1" as="geometry">
            <Array as="points">
              <mxPoint x="290" y="450" />
            </Array>
          </mxGeometry>
        </mxCell>
        <mxCell id="4_9oDL4_EWWqX8cCBYXs-6" value="&lt;span style=&quot;font-size: 20px;&quot;&gt;振幅変調&lt;/span&gt;" style="rounded=0;whiteSpace=wrap;html=1;strokeColor=default;" parent="1" vertex="1">
          <mxGeometry x="180" y="430" width="90" height="40" as="geometry" />
        </mxCell>
        <mxCell id="4_9oDL4_EWWqX8cCBYXs-7" value="" style="shape=orEllipse;perimeter=ellipsePerimeter;whiteSpace=wrap;html=1;backgroundOutline=1;" parent="1" vertex="1">
          <mxGeometry x="300" y="345" width="30" height="30" as="geometry" />
        </mxCell>
        <mxCell id="4_9oDL4_EWWqX8cCBYXs-30" style="edgeStyle=orthogonalEdgeStyle;rounded=0;orthogonalLoop=1;jettySize=auto;html=1;exitX=0.5;exitY=1;exitDx=0;exitDy=0;exitPerimeter=0;entryX=0;entryY=0.5;entryDx=0;entryDy=0;" parent="1" source="4_9oDL4_EWWqX8cCBYXs-10" target="4_9oDL4_EWWqX8cCBYXs-13" edge="1">
          <mxGeometry relative="1" as="geometry" />
        </mxCell>
        <mxCell id="4_9oDL4_EWWqX8cCBYXs-31" style="rounded=0;orthogonalLoop=1;jettySize=auto;html=1;exitX=0.5;exitY=1;exitDx=0;exitDy=0;exitPerimeter=0;entryX=0;entryY=0.5;entryDx=0;entryDy=0;" parent="1" source="4_9oDL4_EWWqX8cCBYXs-10" target="4_9oDL4_EWWqX8cCBYXs-12" edge="1">
          <mxGeometry relative="1" as="geometry">
            <Array as="points">
              <mxPoint x="490" y="300" />
            </Array>
          </mxGeometry>
        </mxCell>
        <mxCell id="4_9oDL4_EWWqX8cCBYXs-10" value="" style="strokeWidth=2;html=1;shape=mxgraph.flowchart.database;whiteSpace=wrap;direction=north;" parent="1" vertex="1">
          <mxGeometry x="360" y="337.5" width="98" height="45" as="geometry" />
        </mxCell>
        <mxCell id="4_9oDL4_EWWqX8cCBYXs-33" style="edgeStyle=orthogonalEdgeStyle;rounded=0;orthogonalLoop=1;jettySize=auto;html=1;exitX=1;exitY=0.5;exitDx=0;exitDy=0;" parent="1" source="4_9oDL4_EWWqX8cCBYXs-12" target="4_9oDL4_EWWqX8cCBYXs-15" edge="1">
          <mxGeometry relative="1" as="geometry" />
        </mxCell>
        <mxCell id="4_9oDL4_EWWqX8cCBYXs-12" value="&lt;span style=&quot;font-size: 20px;&quot;&gt;BPF&lt;/span&gt;" style="rounded=0;whiteSpace=wrap;html=1;strokeColor=default;" parent="1" vertex="1">
          <mxGeometry x="520" y="240" width="90" height="40" as="geometry" />
        </mxCell>
        <mxCell id="4_9oDL4_EWWqX8cCBYXs-34" style="edgeStyle=orthogonalEdgeStyle;rounded=0;orthogonalLoop=1;jettySize=auto;html=1;exitX=1;exitY=0.5;exitDx=0;exitDy=0;entryX=0;entryY=0.5;entryDx=0;entryDy=0;" parent="1" source="4_9oDL4_EWWqX8cCBYXs-13" target="4_9oDL4_EWWqX8cCBYXs-16" edge="1">
          <mxGeometry relative="1" as="geometry" />
        </mxCell>
        <mxCell id="4_9oDL4_EWWqX8cCBYXs-13" value="&lt;span style=&quot;font-size: 20px;&quot;&gt;BPF&lt;/span&gt;" style="rounded=0;whiteSpace=wrap;html=1;strokeColor=default;" parent="1" vertex="1">
          <mxGeometry x="520" y="340" width="90" height="40" as="geometry" />
        </mxCell>
        <mxCell id="4_9oDL4_EWWqX8cCBYXs-35" style="edgeStyle=orthogonalEdgeStyle;rounded=0;orthogonalLoop=1;jettySize=auto;html=1;exitX=1;exitY=0.5;exitDx=0;exitDy=0;entryX=0;entryY=0.5;entryDx=0;entryDy=0;" parent="1" source="4_9oDL4_EWWqX8cCBYXs-14" target="4_9oDL4_EWWqX8cCBYXs-17" edge="1">
          <mxGeometry relative="1" as="geometry" />
        </mxCell>
        <mxCell id="4_9oDL4_EWWqX8cCBYXs-14" value="&lt;span style=&quot;font-size: 20px;&quot;&gt;BPF&lt;/span&gt;" style="rounded=0;whiteSpace=wrap;html=1;strokeColor=default;" parent="1" vertex="1">
          <mxGeometry x="520" y="435" width="90" height="40" as="geometry" />
        </mxCell>
        <mxCell id="4_9oDL4_EWWqX8cCBYXs-36" style="edgeStyle=orthogonalEdgeStyle;rounded=0;orthogonalLoop=1;jettySize=auto;html=1;exitX=1;exitY=0.5;exitDx=0;exitDy=0;entryX=0;entryY=0.5;entryDx=0;entryDy=0;" parent="1" source="4_9oDL4_EWWqX8cCBYXs-15" target="4_9oDL4_EWWqX8cCBYXs-18" edge="1">
          <mxGeometry relative="1" as="geometry" />
        </mxCell>
        <mxCell id="4_9oDL4_EWWqX8cCBYXs-15" value="&lt;span style=&quot;font-size: 20px;&quot;&gt;復調器&lt;/span&gt;" style="rounded=0;whiteSpace=wrap;html=1;strokeColor=default;" parent="1" vertex="1">
          <mxGeometry x="650" y="240" width="90" height="40" as="geometry" />
        </mxCell>
        <mxCell id="4_9oDL4_EWWqX8cCBYXs-37" style="edgeStyle=orthogonalEdgeStyle;rounded=0;orthogonalLoop=1;jettySize=auto;html=1;exitX=1;exitY=0.5;exitDx=0;exitDy=0;entryX=-0.023;entryY=0.486;entryDx=0;entryDy=0;entryPerimeter=0;" parent="1" source="4_9oDL4_EWWqX8cCBYXs-16" target="4_9oDL4_EWWqX8cCBYXs-19" edge="1">
          <mxGeometry relative="1" as="geometry">
            <mxPoint x="760" y="360" as="targetPoint" />
          </mxGeometry>
        </mxCell>
        <mxCell id="4_9oDL4_EWWqX8cCBYXs-16" value="&lt;span style=&quot;font-size: 20px;&quot;&gt;復調器&lt;/span&gt;" style="rounded=0;whiteSpace=wrap;html=1;strokeColor=default;" parent="1" vertex="1">
          <mxGeometry x="650" y="340" width="90" height="40" as="geometry" />
        </mxCell>
        <mxCell id="4_9oDL4_EWWqX8cCBYXs-38" style="edgeStyle=orthogonalEdgeStyle;rounded=0;orthogonalLoop=1;jettySize=auto;html=1;entryX=0;entryY=0.5;entryDx=0;entryDy=0;" parent="1" source="4_9oDL4_EWWqX8cCBYXs-17" target="4_9oDL4_EWWqX8cCBYXs-20" edge="1">
          <mxGeometry relative="1" as="geometry" />
        </mxCell>
        <mxCell id="4_9oDL4_EWWqX8cCBYXs-17" value="&lt;span style=&quot;font-size: 20px;&quot;&gt;復調器&lt;/span&gt;" style="rounded=0;whiteSpace=wrap;html=1;strokeColor=default;" parent="1" vertex="1">
          <mxGeometry x="650" y="435" width="90" height="40" as="geometry" />
        </mxCell>
        <mxCell id="4_9oDL4_EWWqX8cCBYXs-18" value="&lt;font style=&quot;font-size: 20px;&quot;&gt;チャネル1&lt;/font&gt;" style="rounded=0;whiteSpace=wrap;html=1;strokeColor=none;" parent="1" vertex="1">
          <mxGeometry x="770" y="240" width="120" height="40" as="geometry" />
        </mxCell>
        <mxCell id="4_9oDL4_EWWqX8cCBYXs-19" value="&lt;font style=&quot;font-size: 20px;&quot;&gt;チャネル2&lt;/font&gt;" style="rounded=0;whiteSpace=wrap;html=1;strokeColor=none;" parent="1" vertex="1">
          <mxGeometry x="770" y="340" width="120" height="40" as="geometry" />
        </mxCell>
        <mxCell id="4_9oDL4_EWWqX8cCBYXs-20" value="&lt;font style=&quot;font-size: 20px;&quot;&gt;チャネル3&lt;/font&gt;" style="rounded=0;whiteSpace=wrap;html=1;strokeColor=none;" parent="1" vertex="1">
          <mxGeometry x="770" y="435" width="120" height="40" as="geometry" />
        </mxCell>
        <mxCell id="4_9oDL4_EWWqX8cCBYXs-26" style="edgeStyle=orthogonalEdgeStyle;rounded=0;orthogonalLoop=1;jettySize=auto;html=1;exitX=1;exitY=0.5;exitDx=0;exitDy=0;entryX=0;entryY=0.5;entryDx=0;entryDy=0;" parent="1" source="4_9oDL4_EWWqX8cCBYXs-5" target="4_9oDL4_EWWqX8cCBYXs-7" edge="1">
          <mxGeometry relative="1" as="geometry" />
        </mxCell>
        <mxCell id="4_9oDL4_EWWqX8cCBYXs-28" style="edgeStyle=orthogonalEdgeStyle;rounded=0;orthogonalLoop=1;jettySize=auto;html=1;exitX=1;exitY=0.5;exitDx=0;exitDy=0;entryX=0.5;entryY=0;entryDx=0;entryDy=0;entryPerimeter=0;" parent="1" source="4_9oDL4_EWWqX8cCBYXs-7" target="4_9oDL4_EWWqX8cCBYXs-10" edge="1">
          <mxGeometry relative="1" as="geometry" />
        </mxCell>
        <mxCell id="4_9oDL4_EWWqX8cCBYXs-29" value="&lt;font style=&quot;font-size: 20px;&quot;&gt;伝送路&lt;/font&gt;" style="rounded=0;whiteSpace=wrap;html=1;strokeColor=none;" parent="1" vertex="1">
          <mxGeometry x="349" y="290" width="120" height="40" as="geometry" />
        </mxCell>
        <mxCell id="4_9oDL4_EWWqX8cCBYXs-32" style="rounded=0;orthogonalLoop=1;jettySize=auto;html=1;exitX=0.5;exitY=1;exitDx=0;exitDy=0;exitPerimeter=0;entryX=0;entryY=0.5;entryDx=0;entryDy=0;" parent="1" source="4_9oDL4_EWWqX8cCBYXs-10" target="4_9oDL4_EWWqX8cCBYXs-14" edge="1">
          <mxGeometry relative="1" as="geometry">
            <Array as="points">
              <mxPoint x="490" y="420" />
            </Array>
          </mxGeometry>
        </mxCell>
        <mxCell id="vvyPYSnp3aXw1eTfN6y4-3" style="edgeStyle=orthogonalEdgeStyle;rounded=0;orthogonalLoop=1;jettySize=auto;html=1;exitX=1;exitY=0.5;exitDx=0;exitDy=0;entryX=0.5;entryY=1;entryDx=0;entryDy=0;" edge="1" parent="1" source="vvyPYSnp3aXw1eTfN6y4-2" target="4_9oDL4_EWWqX8cCBYXs-4">
          <mxGeometry relative="1" as="geometry" />
        </mxCell>
        <mxCell id="vvyPYSnp3aXw1eTfN6y4-2" value="&lt;span style=&quot;font-size: 20px;&quot;&gt;搬送波1&lt;/span&gt;" style="rounded=0;whiteSpace=wrap;html=1;strokeColor=none;" vertex="1" parent="1">
          <mxGeometry x="120" y="297.5" width="80" height="40" as="geometry" />
        </mxCell>
        <mxCell id="vvyPYSnp3aXw1eTfN6y4-6" style="edgeStyle=orthogonalEdgeStyle;rounded=0;orthogonalLoop=1;jettySize=auto;html=1;exitX=1;exitY=0.5;exitDx=0;exitDy=0;entryX=0.5;entryY=1;entryDx=0;entryDy=0;" edge="1" parent="1" source="vvyPYSnp3aXw1eTfN6y4-4" target="4_9oDL4_EWWqX8cCBYXs-5">
          <mxGeometry relative="1" as="geometry" />
        </mxCell>
        <mxCell id="vvyPYSnp3aXw1eTfN6y4-4" value="&lt;span style=&quot;font-size: 20px;&quot;&gt;搬送波2&lt;/span&gt;" style="rounded=0;whiteSpace=wrap;html=1;strokeColor=none;" vertex="1" parent="1">
          <mxGeometry x="120" y="390" width="80" height="40" as="geometry" />
        </mxCell>
        <mxCell id="vvyPYSnp3aXw1eTfN6y4-7" style="edgeStyle=orthogonalEdgeStyle;rounded=0;orthogonalLoop=1;jettySize=auto;html=1;exitX=1;exitY=0.5;exitDx=0;exitDy=0;entryX=0.5;entryY=1;entryDx=0;entryDy=0;" edge="1" parent="1" source="vvyPYSnp3aXw1eTfN6y4-5" target="4_9oDL4_EWWqX8cCBYXs-6">
          <mxGeometry relative="1" as="geometry" />
        </mxCell>
        <mxCell id="vvyPYSnp3aXw1eTfN6y4-5" value="&lt;span style=&quot;font-size: 20px;&quot;&gt;搬送波3&lt;/span&gt;" style="rounded=0;whiteSpace=wrap;html=1;strokeColor=none;" vertex="1" parent="1">
          <mxGeometry x="120" y="485" width="80" height="40" as="geometry" />
        </mxCell>
        <mxCell id="vvyPYSnp3aXw1eTfN6y4-11" style="edgeStyle=orthogonalEdgeStyle;rounded=0;orthogonalLoop=1;jettySize=auto;html=1;exitX=1;exitY=0.5;exitDx=0;exitDy=0;entryX=0.5;entryY=1;entryDx=0;entryDy=0;" edge="1" parent="1" source="vvyPYSnp3aXw1eTfN6y4-8" target="4_9oDL4_EWWqX8cCBYXs-15">
          <mxGeometry relative="1" as="geometry" />
        </mxCell>
        <mxCell id="vvyPYSnp3aXw1eTfN6y4-8" value="&lt;span style=&quot;font-size: 20px;&quot;&gt;搬送波1&lt;/span&gt;" style="rounded=0;whiteSpace=wrap;html=1;strokeColor=none;" vertex="1" parent="1">
          <mxGeometry x="600" y="290" width="80" height="40" as="geometry" />
        </mxCell>
        <mxCell id="vvyPYSnp3aXw1eTfN6y4-12" style="edgeStyle=orthogonalEdgeStyle;rounded=0;orthogonalLoop=1;jettySize=auto;html=1;exitX=1;exitY=0.5;exitDx=0;exitDy=0;entryX=0.5;entryY=1;entryDx=0;entryDy=0;" edge="1" parent="1" source="vvyPYSnp3aXw1eTfN6y4-9" target="4_9oDL4_EWWqX8cCBYXs-16">
          <mxGeometry relative="1" as="geometry" />
        </mxCell>
        <mxCell id="vvyPYSnp3aXw1eTfN6y4-9" value="&lt;span style=&quot;font-size: 20px;&quot;&gt;搬送波2&lt;/span&gt;" style="rounded=0;whiteSpace=wrap;html=1;strokeColor=none;" vertex="1" parent="1">
          <mxGeometry x="600" y="390" width="80" height="40" as="geometry" />
        </mxCell>
        <mxCell id="vvyPYSnp3aXw1eTfN6y4-13" style="edgeStyle=orthogonalEdgeStyle;rounded=0;orthogonalLoop=1;jettySize=auto;html=1;exitX=1;exitY=0.5;exitDx=0;exitDy=0;entryX=0.5;entryY=1;entryDx=0;entryDy=0;" edge="1" parent="1" source="vvyPYSnp3aXw1eTfN6y4-10" target="4_9oDL4_EWWqX8cCBYXs-17">
          <mxGeometry relative="1" as="geometry" />
        </mxCell>
        <mxCell id="vvyPYSnp3aXw1eTfN6y4-10" value="&lt;span style=&quot;font-size: 20px;&quot;&gt;搬送波3&lt;/span&gt;" style="rounded=0;whiteSpace=wrap;html=1;strokeColor=none;" vertex="1" parent="1">
          <mxGeometry x="600" y="485" width="80" height="40" as="geometry" />
        </mxCell>
      </root>
    </mxGraphModel>
  </diagram>
</mxfile>
